<svg xmlns="http://www.w3.org/2000/svg" viewBox="0 0 512 512" role="img" aria-label="KB Suite icon">
  <defs>
    <linearGradient id="bg" x1="0%" y1="0%" x2="100%" y2="100%">
      <stop offset="0%" stop-color="#0ea5e9" />
      <stop offset="100%" stop-color="#2563eb" />
    </linearGradient>
    <linearGradient id="accent" x1="0%" y1="0%" x2="100%" y2="0%">
      <stop offset="0%" stop-color="#a5f3fc" />
      <stop offset="100%" stop-color="#22c55e" />
    </linearGradient>
    <linearGradient id="shine" x1="0%" y1="0%" x2="100%" y2="100%">
      <stop offset="0%" stop-color="#ffffff" stop-opacity="0.25" />
      <stop offset="50%" stop-color="#ffffff" stop-opacity="0.08" />
      <stop offset="100%" stop-color="#0ea5e9" stop-opacity="0.05" />
    </linearGradient>
  </defs>
  <rect x="0" y="0" width="512" height="512" rx="128" fill="url(#bg)" />
  <rect x="38" y="38" width="436" height="436" rx="118" fill="url(#shine)" opacity="0.32" />
  <circle cx="140" cy="132" r="18" fill="#e0f2fe" opacity="0.9" />
  <path
    fill="#e2e8f0"
    d="M134 118h88v118l84-118h90l-110 140 116 166h-92l-88-130v130h-88z"
  />
  <path
    fill="url(#accent)"
    d="M264 118h70v276h-70zm70 0h70c60 0 102 36 102 88s-42 88-102 88h-70zm4 130h70c60 0 98 38 98 92s-38 92-98 92h-70z"
    opacity="0.95"
  />
  <path
    fill="#0b1224"
    opacity="0.14"
    d="M40 360c40 60 110 98 190 98 104 0 194-64 226-152 20-56 14-118-14-170 18 30 28 64 28 100 0 132-110 240-246 240-80 0-152-40-190-116z"
  />
</svg>
